<svg width="1440" height="1039" viewBox="0 0 1440 1039" fill="none" xmlns="http://www.w3.org/2000/svg">
<g clip-path="url(#clip0)">
<rect width="1440" height="1039" fill="white"/>
<path d="M162.813 735.732L434.472 558.011" stroke="#A5ADBA" stroke-miterlimit="10" stroke-linecap="round" stroke-dasharray="1 1"/>
<path d="M81.855 496.828L390.78 435.062" stroke="#A5ADBA" stroke-miterlimit="10" stroke-linecap="round" stroke-dasharray="1 1"/>
<path d="M78 240.734L386.925 302.5" stroke="#A5ADBA" stroke-miterlimit="10" stroke-linecap="round" stroke-dasharray="1 1"/>
<path d="M151.503 -1.375L423.163 176.347" stroke="#A5ADBA" stroke-miterlimit="10" stroke-linecap="round" stroke-dasharray="1 1"/>
<path d="M293.63 -200.365L495.383 72.044" stroke="#A5ADBA" stroke-miterlimit="10" stroke-linecap="round" stroke-dasharray="1 1"/>
<path d="M487.416 -332.054L594.589 1.8297" stroke="#A5ADBA" stroke-miterlimit="10" stroke-linecap="round" stroke-dasharray="1 1"/>
<path d="M1129.68 -216.681L928.188 55.4373" stroke="#A5ADBA" stroke-miterlimit="10" stroke-linecap="round" stroke-dasharray="1 1"/>
<path d="M1277.72 -23.5176L1006.32 154.204" stroke="#A5ADBA" stroke-miterlimit="10" stroke-linecap="round" stroke-dasharray="1 1"/>
<path d="M1358.68 215.679L1050.01 277.153" stroke="#A5ADBA" stroke-miterlimit="10" stroke-linecap="round" stroke-dasharray="1 1"/>
<path d="M1362.79 471.48L1053.87 409.715" stroke="#A5ADBA" stroke-miterlimit="10" stroke-linecap="round" stroke-dasharray="1 1"/>
<path d="M1289.03 713.59L1017.63 535.868" stroke="#A5ADBA" stroke-miterlimit="10" stroke-linecap="round" stroke-dasharray="1 1"/>
<path d="M1146.9 912.579L945.409 640.17" stroke="#A5ADBA" stroke-miterlimit="10" stroke-linecap="round" stroke-dasharray="1 1"/>
<path d="M953.374 1044.56L846.201 710.385" stroke="#A5ADBA" stroke-miterlimit="10" stroke-linecap="round" stroke-dasharray="1 1"/>
<path d="M720.524 966.771L720.524 737.771" stroke="#A5ADBA" stroke-miterlimit="10" stroke-linecap="round" stroke-dasharray="1 1"/>
<path d="M508.491 1053.3L615.921 719.125" stroke="#A5ADBA" stroke-miterlimit="10" stroke-linecap="round" stroke-dasharray="1 1"/>
<path d="M311.107 928.895L512.602 656.777" stroke="#A5ADBA" stroke-miterlimit="10" stroke-linecap="round" stroke-dasharray="1 1"/>
<path d="M162.813 735.732L434.472 558.011" stroke="#A5ADBA" stroke-miterlimit="10" stroke-linecap="round" stroke-dasharray="1 1"/>
<path d="M81.855 496.828L390.78 435.062" stroke="#A5ADBA" stroke-miterlimit="10" stroke-linecap="round" stroke-dasharray="1 1"/>
<path d="M78 240.734L386.925 302.5" stroke="#A5ADBA" stroke-miterlimit="10" stroke-linecap="round" stroke-dasharray="1 1"/>
<path d="M151.503 -1.375L423.163 176.347" stroke="#A5ADBA" stroke-miterlimit="10" stroke-linecap="round" stroke-dasharray="1 1"/>
<path d="M293.63 -200.365L495.383 72.044" stroke="#A5ADBA" stroke-miterlimit="10" stroke-linecap="round" stroke-dasharray="1 1"/>
<path d="M487.416 -332.054L594.589 1.8297" stroke="#A5ADBA" stroke-miterlimit="10" stroke-linecap="round" stroke-dasharray="1 1"/>
<g clip-path="url(#clip1)">
<path d="M1136.27 305.688L1254.14 184L1425.88 226.653L1307.33 348.303L1136.27 305.688Z" fill="#C5E9DA" stroke="#36B37E" stroke-width="2.29137" stroke-miterlimit="10" stroke-linejoin="round"/>
<path d="M1307.33 348.304L1425.88 226.653L1462.51 393.898L1352.23 512.838L1307.33 348.304Z" fill="white" stroke="#36B37E" stroke-width="2.29137" stroke-miterlimit="10" stroke-linejoin="round"/>
<path d="M1307.33 348.303L1235.12 411.754L1352.23 512.837L1307.33 348.303Z" fill="white" stroke="#36B37E" stroke-width="2.29137" stroke-miterlimit="10" stroke-linejoin="round"/>
<path d="M1235.12 411.754L1136.27 305.688L1307.33 348.303L1235.12 411.754Z" fill="white" stroke="#36B37E" stroke-width="2.29137" stroke-miterlimit="10" stroke-linejoin="round"/>
<path d="M1352.23 512.838L1180.14 466.445L1235.12 411.754L1352.23 512.838Z" fill="#C5E9DA" stroke="#36B37E" stroke-width="2.29137" stroke-miterlimit="10" stroke-linejoin="round"/>
<path d="M1136.27 305.688L1180.14 466.445L1235.12 411.754L1136.27 305.688Z" fill="white" stroke="#36B37E" stroke-width="2.29137" stroke-miterlimit="10" stroke-linejoin="round"/>
<path d="M1271.12 380.057L1292.98 361.012L1271.12 380.057Z" fill="#644DF2"/>
<path d="M1288.23 343.594L1292.98 361.012L1307.33 348.303L1288.23 343.594Z" fill="#36B37E"/>
<path d="M1288.23 343.594L1404.61 221.41L1375.11 214.126L1259.21 336.406L1288.23 343.594Z" fill="#36B37E"/>
<path d="M1237.4 330.857L1353.78 208.672L1324.28 201.389L1208.38 323.668L1237.4 330.857Z" fill="#36B37E"/>
<path d="M1237.4 330.856L1255.04 395.495L1271.12 380.057L1259.21 336.405L1237.4 330.856Z" fill="#36B37E"/>
<path d="M1208.38 323.669L1231.28 407.615L1180.89 353.495L1170.12 314.04L1208.38 323.669Z" fill="#36B37E"/>
<path d="M1170.12 314.04L1187.96 296.77L1153.31 287.961L1136.27 305.689L1170.12 314.04Z" fill="#172B4D"/>
<path d="M1224.69 306.59L1241.3 288.977L1203.52 279.444L1186.43 296.961L1224.69 306.59Z" fill="#172B4D"/>
<path d="M1203.52 279.443L1221.36 262.174L1186.71 253.365L1169.62 270.882L1203.52 279.443Z" fill="#172B4D"/>
<path d="M1230.52 416.391L1235.12 411.754L1197.71 471.346L1180.14 466.445L1230.52 416.391Z" fill="#172B4D"/>
<path d="M1437.4 278.757L1415.63 302.286L1424.45 339.565L1445.65 316.419L1437.4 278.757Z" fill="#36B37E"/>
<path d="M1422.6 331.952L1428.69 360.056L1407.5 383.202L1400.93 355.004L1329.78 430.57C1329.78 430.57 1349.25 501.924 1352.23 512.837C1355.21 523.75 1462.56 394.107 1462.56 394.107L1443.97 309.435L1422.6 331.952Z" fill="#172B4D"/>
</g>
<g opacity="0.88">
<g clip-path="url(#clip2)">
<path d="M417.707 785.366L376.867 850.138L296.941 847.217L338.087 782.399L417.707 785.366Z" fill="#C5E9DA" stroke="#36B37E" stroke-width="1.11251" stroke-miterlimit="10" stroke-linejoin="round"/>
<path d="M338.088 782.399L296.941 847.217L265.213 776.64L302.949 713.79L338.088 782.399Z" fill="white" stroke="#36B37E" stroke-width="1.11251" stroke-miterlimit="10" stroke-linejoin="round"/>
<path d="M338.088 782.399L364.135 747.628L302.949 713.79L338.088 782.399Z" fill="white" stroke="#36B37E" stroke-width="1.11251" stroke-miterlimit="10" stroke-linejoin="round"/>
<path d="M364.135 747.628L417.707 785.366L338.088 782.399L364.135 747.628Z" fill="white" stroke="#36B37E" stroke-width="1.11251" stroke-miterlimit="10" stroke-linejoin="round"/>
<path d="M302.949 713.79L383.375 718.332L364.135 747.628L302.949 713.79Z" fill="#C5E9DA" stroke="#36B37E" stroke-width="1.11251" stroke-miterlimit="10" stroke-linejoin="round"/>
<path d="M417.707 785.366L383.375 718.332L364.135 747.628L417.707 785.366Z" fill="white" stroke="#36B37E" stroke-width="1.11251" stroke-miterlimit="10" stroke-linejoin="round"/>
<path d="M351.155 764.992L343.253 775.446L351.155 764.992Z" fill="#644DF2"/>
<path d="M346.973 782.709L343.253 775.446L338.088 782.399L346.973 782.709Z" fill="#36B37E"/>
<path d="M346.973 782.708L306.838 847.561L320.562 848.044L360.478 783.193L346.973 782.708Z" fill="#36B37E"/>
<path d="M370.639 783.624L330.504 848.476L344.228 848.959L384.144 784.108L370.639 783.624Z" fill="#36B37E"/>
<path d="M370.64 783.623L356.835 756.669L351.155 764.991L360.478 783.194L370.64 783.623Z" fill="#36B37E"/>
<path d="M384.144 784.108L366.216 749.104L393.533 768.363L401.959 784.815L384.144 784.108Z" fill="#36B37E"/>
<path d="M401.96 784.816L395.673 794.111L411.818 794.79L417.707 785.367L401.96 784.816Z" fill="#172B4D"/>
<path d="M378.515 793.177L372.801 802.51L390.397 803.22L396.331 793.884L378.515 793.177Z" fill="#172B4D"/>
<path d="M390.397 803.22L384.111 812.515L400.256 813.194L406.189 803.859L390.397 803.22Z" fill="#172B4D"/>
<path d="M365.738 745.15L364.135 747.628L375.147 717.796L383.375 718.332L365.738 745.15Z" fill="#172B4D"/>
<path d="M287.011 825.24L294.454 812.811L287.09 797.14L279.865 809.347L287.011 825.24Z" fill="#36B37E"/>
<path d="M288.616 800.335L283.312 788.47L290.538 776.263L296.061 788.127L320.518 748.095C320.518 748.095 305.28 718.341 302.949 713.79C300.618 709.239 265.168 776.553 265.168 776.553L281.256 812.279L288.616 800.335Z" fill="#172B4D"/>
</g>
</g>
<g clip-path="url(#clip3)">
<path d="M52.2924 354.99L200.988 262.717C200.988 262.717 81.7305 451.133 79.7308 450.32C79.7308 450.32 61.1872 380.504 52.2924 354.99Z" fill="white" stroke="#36B37E" stroke-width="1.43899" stroke-miterlimit="10" stroke-linejoin="round"/>
<path d="M200.988 262.717L205.471 268.887C205.471 268.887 210.303 463.448 209.999 465.344C209.695 467.239 212.678 469.072 207.995 470.276C203.312 471.48 120.384 458.449 99.991 454.357C79.7309 450.32 79.7309 450.32 79.7309 450.32L200.988 262.717Z" fill="#36B37E"/>
<path d="M108.736 343.749L145.14 441.48L207.45 407.771L204.954 305.333L108.736 343.749Z" fill="#C5E9DA"/>
<mask id="mask0" mask-type="alpha" maskUnits="userSpaceOnUse" x="80" y="277" width="164" height="183">
<path d="M109.216 344.454L145.62 442.185L207.93 408.476L205.434 306.038L109.216 344.454Z" fill="#C5E9DA"/>
</mask>
<g mask="url(#mask0)">
<path d="M198.527 403.825L181.871 400.476L181.487 422.065L163.573 419.136L162.431 442.592L181.017 445.016L198.694 447.383L215.463 449.691L214.779 427.668L198.494 424.935L198.527 403.825Z" fill="#36B37E"/>
<path d="M164.439 397.123L181.871 400.477L182.221 380.117L165.46 376.259L164.439 397.123Z" fill="#36B37E"/>
<path d="M146.208 393.444L144.671 415.962L163.573 419.137L164.44 397.123L146.208 393.444Z" fill="#36B37E"/>
<path d="M146.208 393.443L147.658 372.287L129.002 368.125L126.935 389.652L146.208 393.443Z" fill="#36B37E"/>
<path d="M126.935 389.653L106.809 385.67L103.796 409.142L100.588 434.243L122.378 437.193L142.992 439.976L144.671 415.962L124.727 412.675L126.935 389.653Z" fill="#36B37E"/>
<path d="M245.188 432.723L230.344 430.265L231.377 451.808L246.571 453.787L245.188 432.723Z" fill="#36B37E"/>
<path d="M244.013 412.675L242.672 393.803L228.607 390.574L213.821 387.207L213.334 368.526L198.39 364.785L182.725 360.906L182.221 380.117L198.448 383.758L198.527 403.826L214.384 406.851L214.779 427.669L230.344 430.265L229.465 409.871L244.013 412.675Z" fill="#36B37E"/>
<path d="M226.982 354.811L212.867 350.941L213.334 368.526L227.824 372.238L226.982 354.811Z" fill="#36B37E"/>
<path d="M166.26 356.702L182.725 360.906L183.037 342.55L167.135 338.108L150.378 333.476L149.074 352.361L147.658 372.288L165.46 376.258L166.26 356.702Z" fill="#36B37E"/>
<path d="M131.035 347.828L112.196 342.97L109.546 363.638L129.002 368.125L131.035 347.828Z" fill="#36B37E"/>
<path d="M88.915 358.985L85.3737 381.465L106.809 385.669L109.546 363.638L88.915 358.985Z" fill="#36B37E"/>
</g>
<path d="M108.736 343.749L162.509 322.26L123.751 384.02L108.736 343.749Z" fill="#172B4D"/>
<path d="M79.3726 338.033L67.728 406.459" stroke="#36B37E" stroke-width="1.43899" stroke-miterlimit="10" stroke-linejoin="round"/>
<path d="M76.9437 352.424L72.2943 342.458L79.3726 338.034L76.9437 352.424Z" fill="#172B4D"/>
<path d="M172.728 280.282L187.11 284.261" stroke="#36B37E" stroke-width="1.43899" stroke-miterlimit="10" stroke-linejoin="round"/>
<path d="M119.022 373.867L154.48 463.603" stroke="white" stroke-width="1.43899" stroke-miterlimit="10" stroke-linejoin="round"/>
</g>
<g clip-path="url(#clip4)">
<path d="M1080.3 111.561L971.432 97.1183L925.976 53.0205L932.009 -58.3567L946.795 -79.6636L979.777 -75.0514L1086.14 39.5589L1080.3 111.561Z" fill="#C5E9DA" stroke="#36B37E" stroke-width="1.51665" stroke-miterlimit="10" stroke-linejoin="round"/>
<path d="M1008.28 102.013L1005.76 69.9915C1005.76 69.9915 994.766 100.204 990.192 99.6139C985.492 98.9372 1008.28 102.013 1008.28 102.013Z" fill="#36B37E"/>
<path d="M1034.3 105.485L1059.25 10.7427" stroke="#36B37E" stroke-width="1.51665" stroke-miterlimit="10"/>
<path d="M1052.96 34.4375L1051.09 1.75498" stroke="#36B37E" stroke-width="1.51665" stroke-miterlimit="10"/>
<path d="M931.495 -34.9309L975.989 -6.03165L987.003 6.8651L975.453 15.5076L930.71 -20.9882L931.495 -34.9309Z" fill="white" stroke="#36B37E" stroke-width="1.51665"/>
<path d="M1005.32 85.3936L1005.66 35.9656" stroke="#36B37E" stroke-width="1.51665" stroke-miterlimit="10"/>
<path d="M930.244 -26.1515L930.677 -26.7745L943.925 -19.7959L965.715 0.678859L976.495 -6.60875L979.833 -74.997L946.85 -79.6092L932.064 -58.3023L930.244 -26.1515Z" fill="#172B4D"/>
<path d="M943.147 -18.6743L930.272 -25.3935L926.031 53.0751L971.487 97.1729L975.433 16.4689L969.717 7.14861L943.147 -18.6743Z" fill="#172B4D"/>
</g>
<g clip-path="url(#clip5)">
<path d="M941.352 820.784L1034.29 661.79C1034.29 661.79 1052.19 638.169 1092.09 659.314C1132 680.459 1122.92 707.153 1122.92 707.153L1032.01 872.174C1032.01 872.174 1014.56 891.855 977.662 873.138C934.748 851.49 941.352 820.784 941.352 820.784Z" fill="#C5E9DA" stroke="#36B37E" stroke-width="1.38636" stroke-miterlimit="10"/>
<path d="M941.354 820.783C941.354 820.783 954.597 798.249 1000.01 821.175C1042.55 842.722 1032.02 872.173 1032.02 872.173C1032.02 872.173 1012.98 891.328 977.664 873.138C942.348 854.947 941.302 832.339 941.354 820.783Z" fill="#36B37E"/>
<path d="M1026.85 674.41C1026.85 674.41 1049.25 688.532 1065.26 726.515C1082.27 766.798 1077.27 790.017 1077.27 790.017L1095.59 756.868C1095.59 756.868 1098.9 739.589 1078.3 697.533C1061.52 663.199 1045.42 653.607 1045.42 653.607L1034.24 661.979L1026.85 674.41Z" fill="#172B4D"/>
<path d="M994.398 730.767C994.398 730.767 1014.47 744.469 1028.76 785.848C1043.04 827.226 1041.16 855.848 1041.16 855.848L1059.48 822.699C1059.48 822.699 1062.35 796.067 1046.14 758.841C1031.03 724.345 1009.55 704.889 1009.55 704.889L997.606 725.233L994.398 730.767Z" fill="#36B37E"/>
<path d="M1000.01 821.176C1000.01 821.176 1002.48 777.487 981.338 752.235L964.785 780.682C964.785 780.682 969.897 793.418 967.413 811.021C967.413 811.021 987.792 815.263 1000.01 821.176Z" fill="#172B4D"/>
<path d="M983.08 838.155L990.36 843.556L1023.19 841.089C1023.19 841.089 1014.18 828.524 1000.01 821.176L983.912 828.229L983.08 838.155Z" fill="white" stroke="#36B37E" stroke-width="1.38636" stroke-miterlimit="10"/>
<path d="M951.245 813.792C951.245 813.792 943.292 815.822 941.234 820.852L979.918 846.543C979.918 846.543 982.904 837.295 984.131 834.986C985.479 832.607 987.764 828.246 987.764 828.246L976.928 812.25C977.048 812.181 964.059 806.874 951.245 813.792Z" fill="white" stroke="#36B37E" stroke-width="1.38636" stroke-miterlimit="10"/>
<path d="M1082.77 655.09C1082.77 655.09 1099.88 678.349 1105.7 707.006C1111.15 733.635 1107.02 736.181 1107.02 736.181L1122.92 707.153C1122.92 707.153 1126.83 694.806 1117.1 679.614C1107.37 664.421 1082.77 655.09 1082.77 655.09Z" fill="#36B37E"/>
<path d="M984.251 834.916C984.251 834.916 971.967 837.207 967.834 839.753C963.701 842.299 962.431 842.872 962.431 842.872L972.894 848.517L980.038 846.474L984.251 834.916Z" fill="white" stroke="#36B37E" stroke-width="1.38636" stroke-miterlimit="10"/>
<path d="M990.429 843.676L988.746 851.851L1012.71 880.599C1012.71 880.599 1015.67 881.291 1025.47 876.914L1029.53 874.248L996.003 840.298C996.072 840.418 991.236 839.528 990.429 843.676Z" fill="white" stroke="#36B37E" stroke-width="1.38636" stroke-miterlimit="10"/>
<path d="M990.429 843.676C990.429 843.676 1009.75 854.131 1009.36 853.72C1008.96 853.309 998.431 837.295 998.431 837.295C998.431 837.295 990.215 838.037 990.429 843.676Z" fill="white" stroke="#36B37E" stroke-width="1.38636" stroke-miterlimit="10"/>
</g>
<g opacity="0.32">
<g clip-path="url(#clip6)">
<path d="M501.516 81.0448L519.77 104.299L508.338 132.984L490.107 109.612L501.516 81.0448Z" fill="#C5E9DA" stroke="#36B37E" stroke-width="1.11251" stroke-miterlimit="10" stroke-linejoin="round"/>
<path d="M490.107 109.611L508.339 132.983L478.558 135.363L460.6 113.487L490.107 109.611Z" fill="white" stroke="#36B37E" stroke-width="1.11251" stroke-miterlimit="10" stroke-linejoin="round"/>
<path d="M490.107 109.611L480.843 95.6281L460.6 113.487L490.107 109.611Z" fill="white" stroke="#36B37E" stroke-width="1.11251" stroke-miterlimit="10" stroke-linejoin="round"/>
<path d="M480.843 95.6283L501.516 81.0439L490.107 109.611L480.843 95.6283Z" fill="white" stroke="#36B37E" stroke-width="1.11251" stroke-miterlimit="10" stroke-linejoin="round"/>
<path d="M460.6 113.487L472.686 84.8311L480.843 95.6283L460.6 113.487Z" fill="#C5E9DA" stroke="#36B37E" stroke-width="1.11251" stroke-miterlimit="10" stroke-linejoin="round"/>
<path d="M501.516 81.0439L472.686 84.8311L480.843 95.6283L501.516 81.0439Z" fill="white" stroke="#36B37E" stroke-width="1.11251" stroke-miterlimit="10" stroke-linejoin="round"/>
<path d="M485.472 102.601L488.249 106.831L485.472 102.601Z" fill="#644DF2"/>
<path d="M491.373 106.42L488.249 106.83L490.107 109.611L491.373 106.42Z" fill="#36B37E"/>
<path d="M491.372 106.42L509.747 129.428L511.704 124.501L493.301 101.572L491.372 106.42Z" fill="#36B37E"/>
<path d="M494.775 97.9328L513.15 120.941L515.106 116.013L496.704 93.0852L494.775 97.9328Z" fill="#36B37E"/>
<path d="M494.775 97.9326L483.183 99.4554L485.472 102.6L493.301 101.572L494.775 97.9326Z" fill="#36B37E"/>
<path d="M496.703 93.0849L481.649 95.0625L492.196 87.6277L499.272 86.6982L496.703 93.0849Z" fill="#36B37E"/>
<path d="M499.272 86.6984L501.837 90.1901L504.178 84.4076L501.516 81.0436L499.272 86.6984Z" fill="#172B4D"/>
<path d="M499.271 96.3091L501.924 99.5978L504.464 93.2914L501.84 89.9224L499.271 96.3091Z" fill="#172B4D"/>
<path d="M504.465 93.2911L507.029 96.7829L509.371 91.0004L506.746 87.6314L504.465 93.2911Z" fill="#172B4D"/>
<path d="M480.15 94.7239L480.843 95.6283L471.424 87.7535L472.686 84.8311L480.15 94.7239Z" fill="#172B4D"/>
<path d="M499.058 133.742L495.505 129.423L488.851 130.067L492.352 134.278L499.058 133.742Z" fill="#36B37E"/>
<path d="M490.211 129.927L485.208 130.316L481.707 126.105L486.737 125.636L475.354 111.549C475.354 111.549 462.557 113.23 460.6 113.487C458.643 113.744 478.521 135.368 478.521 135.368L493.599 134.153L490.211 129.927Z" fill="#172B4D"/>
</g>
</g>
<g opacity="0.48" clip-path="url(#clip7)">
<path d="M530.931 612.707L614.486 663.674C614.486 663.674 626.858 673.42 615.225 694.411C603.592 715.403 589.499 710.312 589.499 710.312L502.722 660.368C502.722 660.368 492.439 650.899 502.751 631.479C514.681 608.892 530.931 612.707 530.931 612.707Z" fill="#C5E9DA" stroke="#36B37E" stroke-width="0.736762" stroke-miterlimit="10"/>
<path d="M530.931 612.707C530.931 612.707 542.773 619.968 530.139 643.87C518.266 666.256 502.722 660.368 502.722 660.368C502.722 660.368 492.734 650.062 502.751 631.479C512.769 612.895 524.792 612.564 530.931 612.707Z" fill="#36B37E"/>
<path d="M607.854 659.595C607.854 659.595 600.128 671.357 579.786 679.483C558.213 688.122 545.925 685.232 545.925 685.232L563.356 695.297C563.356 695.297 572.504 697.228 595.055 686.702C613.466 678.128 618.723 669.667 618.723 669.667L614.386 663.646L607.854 659.595Z" fill="#172B4D"/>
<path d="M578.232 641.789C578.232 641.789 570.752 652.32 548.623 659.498C526.495 666.676 511.305 665.389 511.305 665.389L528.736 675.454C528.736 675.454 542.859 677.246 562.8 669.004C581.28 661.317 591.831 650.099 591.831 650.099L581.141 643.549L578.232 641.789Z" fill="#36B37E"/>
<path d="M530.138 643.87C530.138 643.87 553.327 645.618 566.956 634.635L552.006 625.557C552.006 625.557 545.187 628.146 535.859 626.651C535.859 626.651 533.402 637.437 530.138 643.87Z" fill="#172B4D"/>
<path d="M521.285 634.705L518.343 638.52L519.327 655.99C519.327 655.99 526.093 651.325 530.138 643.87L526.551 635.246L521.285 634.705Z" fill="white" stroke="#36B37E" stroke-width="0.736762" stroke-miterlimit="10"/>
<path d="M534.548 618.033C534.548 618.033 533.548 613.787 530.896 612.643L516.86 632.942C516.86 632.942 521.744 634.62 522.959 635.296C524.21 636.036 526.504 637.293 526.504 637.293L535.111 631.695C535.146 631.759 538.096 624.911 534.548 618.033Z" fill="white" stroke="#36B37E" stroke-width="0.736762" stroke-miterlimit="10"/>
<path d="M617.562 689.501C617.562 689.501 605.033 698.36 589.748 701.167C575.545 703.797 574.233 701.576 574.233 701.576L589.499 710.312C589.499 710.312 596.02 712.516 604.19 707.497C612.359 702.477 617.562 689.501 617.562 689.501Z" fill="#36B37E"/>
<path d="M522.994 635.36C522.994 635.36 521.9 628.81 520.588 626.588C519.276 624.367 518.984 623.686 518.984 623.686L515.88 629.19L516.895 633.006L522.994 635.36Z" fill="white" stroke="#36B37E" stroke-width="0.736762" stroke-miterlimit="10"/>
<path d="M518.278 638.555L513.951 637.58L498.438 650.025C498.438 650.025 498.04 651.591 500.268 656.842L501.645 659.027L520.018 641.551C519.953 641.586 520.474 639.025 518.278 638.555Z" fill="white" stroke="#36B37E" stroke-width="0.736762" stroke-miterlimit="10"/>
<path d="M518.278 638.555C518.278 638.555 512.531 648.718 512.753 648.511C512.975 648.304 521.589 642.871 521.589 642.871C521.589 642.871 521.277 638.498 518.278 638.555Z" fill="white" stroke="#36B37E" stroke-width="0.736762" stroke-miterlimit="10"/>
</g>
</g>
<defs>
<clipPath id="clip0">
<rect width="1440" height="1039" fill="white"/>
</clipPath>
<clipPath id="clip1">
<rect width="302.379" height="345.234" fill="white" transform="translate(1112.2 221.609) rotate(-15.2643)"/>
</clipPath>
<clipPath id="clip2">
<rect width="136.667" height="156.036" fill="white" transform="translate(436.162 820.321) rotate(152.88)"/>
</clipPath>
<clipPath id="clip3">
<rect width="217" height="220.885" fill="white" transform="translate(105.136 223.001) rotate(22.1095)"/>
</clipPath>
<clipPath id="clip4">
<rect width="220.218" height="147.722" fill="white" transform="translate(1051.92 153.914) rotate(-145.241)"/>
</clipPath>
<clipPath id="clip5">
<rect width="232.215" height="185.079" fill="white" transform="translate(887 744.108) rotate(-30)"/>
</clipPath>
<clipPath id="clip6">
<rect width="52.7646" height="60.2428" fill="white" transform="translate(516.621 78.8682) rotate(82.5164)"/>
</clipPath>
<clipPath id="clip7">
<rect width="123.408" height="98.3577" fill="white" transform="translate(572.213 584.591) rotate(61.0741)"/>
</clipPath>
</defs>
</svg>
